<svg width="50" height="51" viewBox="0 0 50 51" fill="none" xmlns="http://www.w3.org/2000/svg">
<path d="M35.4168 38C33.1043 38 31.2502 39.8541 31.2502 42.1666C31.2502 43.2717 31.6892 44.3315 32.4706 45.1129C33.252 45.8943 34.3118 46.3333 35.4168 46.3333C36.5219 46.3333 37.5817 45.8943 38.3631 45.1129C39.1445 44.3315 39.5835 43.2717 39.5835 42.1666C39.5835 41.0616 39.1445 40.0018 38.3631 39.2204C37.5817 38.4389 36.5219 38 35.4168 38ZM2.0835 4.66663V8.83329H6.25016L13.7502 24.6458L10.9168 29.75C10.6043 30.3333 10.4168 31.0208 10.4168 31.75C10.4168 32.855 10.8558 33.9148 11.6372 34.6962C12.4186 35.4776 13.4784 35.9166 14.5835 35.9166H39.5835V31.75H15.4585C15.3204 31.75 15.1879 31.6951 15.0902 31.5974C14.9925 31.4997 14.9377 31.3673 14.9377 31.2291C14.9377 31.125 14.9585 31.0416 15.0002 30.9791L16.8752 27.5833H32.396C33.9585 27.5833 35.3335 26.7083 36.0418 25.4375L43.5002 11.9583C43.646 11.625 43.7502 11.2708 43.7502 10.9166C43.7502 10.3641 43.5307 9.83419 43.14 9.44349C42.7493 9.05279 42.2194 8.83329 41.6668 8.83329H10.8543L8.896 4.66663M14.5835 38C12.271 38 10.4168 39.8541 10.4168 42.1666C10.4168 43.2717 10.8558 44.3315 11.6372 45.1129C12.4186 45.8943 13.4784 46.3333 14.5835 46.3333C15.6886 46.3333 16.7484 45.8943 17.5298 45.1129C18.3112 44.3315 18.7502 43.2717 18.7502 42.1666C18.7502 41.0616 18.3112 40.0018 17.5298 39.2204C16.7484 38.4389 15.6886 38 14.5835 38Z" fill="white"/>
</svg>
